<?xml version="1.0" encoding="utf-8"?>
<!-- Generator: Adobe Illustrator 18.1.1, SVG Export Plug-In . SVG Version: 6.00 Build 0)  -->
<svg version="1.1" id="Layer_1" xmlns:sketch="http://www.bohemiancoding.com/sketch/ns"
	 xmlns="http://www.w3.org/2000/svg" xmlns:xlink="http://www.w3.org/1999/xlink" x="0px" y="0px" viewBox="-214 306 182 182"
	 enable-background="new -214 306 182 182" xml:space="preserve">
<circle fill="#D8D8D8" cx="-123" cy="397" r="91"/>
<title></title>
<path id="globe-2-icon" fill="#FFFFFF" d="M-123,334.6c-34.5,0-62.4,27.9-62.4,62.4c0,34.5,27.9,62.4,62.4,62.4
	c34.5,0,62.4-27.9,62.4-62.4C-60.6,362.5-88.5,334.6-123,334.6z M-82.1,368.5h-13c-2.2-6.4-5.1-12.3-8.8-17.5
	C-95,354.7-87.5,360.8-82.1,368.5z M-90.6,392.2c-0.2-4.8-0.9-9.5-1.8-14.1h15.6c1.8,4.4,3,9.2,3.5,14.1H-90.6z M-73.4,401.8
	c-0.5,5-1.7,9.7-3.5,14.1h-15.5c1-4.6,1.6-9.4,1.8-14.1H-73.4z M-118.2,368.5v-19.4c5.7,5,10,11.8,13,19.4H-118.2L-118.2,368.5z
	 M-102.2,378.1c1.1,4.6,1.8,9.4,2,14.1h-18v-14.1H-102.2z M-127.8,348.8v19.7h-13.3C-138.1,360.8-133.7,353.9-127.8,348.8z
	 M-127.8,378.1v14.1h-18.3c0.3-4.7,0.9-9.5,2-14.1H-127.8z M-127.8,401.8v14.1h-16.3c-1.1-4.6-1.7-9.4-2-14.1H-127.8z M-127.8,425.5
	v19.9c-5.9-5.1-10.4-12.1-13.4-19.9H-127.8z M-118.2,445.1v-19.6h13.1C-108.1,433.2-112.4,440.1-118.2,445.1z M-118.2,415.9v-14.1
	h18c-0.3,4.7-0.9,9.5-2,14.1H-118.2z M-142.6,351.2c-3.6,5.2-6.5,11.1-8.7,17.4h-12.6C-158.6,360.9-151.2,354.9-142.6,351.2z
	 M-155.7,392.2h-16.9c0.5-5,1.7-9.7,3.5-14.1h15.3C-154.8,382.7-155.5,387.5-155.7,392.2z M-153.9,415.9h-15.2
	c-1.8-4.4-3-9.2-3.5-14.1h16.9C-155.5,406.5-154.9,411.3-153.9,415.9z M-163.9,425.5h12.6c2.1,6.2,4.9,12.1,8.5,17.2
	C-151.4,439-158.6,433-163.9,425.5z M-103.6,442.9c3.6-5.2,6.5-11.1,8.6-17.4h12.9C-87.5,433.2-94.9,439.2-103.6,442.9z"/>
</svg>
